<?xml version="1.0" encoding="UTF-8" standalone="no"?>
<!-- Created with Inkscape (http://www.inkscape.org/) -->

<svg
   width="17.029451mm"
   height="17.186043mm"
   viewBox="0 0 17.029451 17.186043"
   version="1.1"
   id="svg5"
   xml:space="preserve"
   inkscape:version="1.2.2 (732a01da63, 2022-12-09)"
   sodipodi:docname="logo_bg.svg"
   xmlns:inkscape="http://www.inkscape.org/namespaces/inkscape"
   xmlns:sodipodi="http://sodipodi.sourceforge.net/DTD/sodipodi-0.dtd"
   xmlns="http://www.w3.org/2000/svg"
   xmlns:svg="http://www.w3.org/2000/svg"><sodipodi:namedview
     id="namedview7"
     pagecolor="#505050"
     bordercolor="#eeeeee"
     borderopacity="1"
     inkscape:showpageshadow="0"
     inkscape:pageopacity="0"
     inkscape:pagecheckerboard="0"
     inkscape:deskcolor="#505050"
     inkscape:document-units="mm"
     showgrid="false"
     inkscape:zoom="5.12"
     inkscape:cx="17.1875"
     inkscape:cy="31.25"
     inkscape:window-width="1920"
     inkscape:window-height="1017"
     inkscape:window-x="1912"
     inkscape:window-y="-8"
     inkscape:window-maximized="1"
     inkscape:current-layer="layer1" /><defs
     id="defs2" /><g
     inkscape:label="Layer 1"
     inkscape:groupmode="layer"
     id="layer1"
     transform="translate(206.09523,40.437836)"><g
       id="g369-6-3"
       transform="matrix(0.13229161,0,0,0.13229161,-206.09523,-42.408871)"
       style="fill:#bebebe;fill-opacity:1"><g
         inkscape:label="Text"
         id="layer1-1-5-5"
         transform="translate(-129.58594,-92.908203)"
         style="display:none;fill:#bebebe;fill-opacity:1"><text
           xml:space="preserve"
           style="font-style:normal;font-variant:normal;font-weight:900;font-stretch:normal;font-size:26.6667px;font-family:Nexa;-inkscape-font-specification:'Nexa, Heavy';font-variant-ligatures:normal;font-variant-caps:normal;font-variant-numeric:normal;font-variant-east-asian:normal;fill:#bebebe;fill-opacity:1"
           x="100.41704"
           y="88.945854"
           id="text113-6-9-2"
           inkscape:label="4S Solutions"><tspan
             sodipodi:role="line"
             id="tspan111-4-0-4"
             x="100.41704"
             y="88.945854"
             style="font-style:normal;font-variant:normal;font-weight:900;font-stretch:normal;font-size:26.6667px;font-family:Nexa;-inkscape-font-specification:'Nexa, Heavy';font-variant-ligatures:normal;font-variant-caps:normal;font-variant-numeric:normal;font-variant-east-asian:normal;fill:#bebebe;fill-opacity:1"
             dy="11">4S</tspan><tspan
             sodipodi:role="line"
             x="100.41704"
             y="122.27923"
             style="font-style:normal;font-variant:normal;font-weight:900;font-stretch:normal;font-size:26.6667px;font-family:Nexa;-inkscape-font-specification:'Nexa, Heavy';font-variant-ligatures:normal;font-variant-caps:normal;font-variant-numeric:normal;font-variant-east-asian:normal;fill:#bebebe;fill-opacity:1"
             id="tspan165-8-2-4">Solutions </tspan></text></g><g
         id="layer2-0-5-8"
         inkscape:label="Shop"
         transform="translate(-129.58594,-92.908203)"
         style="display:none;fill:#bebebe;fill-opacity:1"><g
           id="g908-4-4-6"
           inkscape:label="Building"
           style="display:inline;fill:#bebebe;fill-opacity:1"><path
             id="rect533-6-7-1"
             style="fill:#bebebe;stroke-width:0.550527;fill-opacity:1"
             inkscape:label="right wall"
             d="m 95.273438,81.841797 v 40.863283 h 3.677734 V 80.855469 Z"
             transform="matrix(-1,0,0,1,323.53516,0)" /><path
             id="path902-9-2-3"
             style="fill:#bebebe;stroke-width:0.550527;fill-opacity:1"
             inkscape:label="left wall"
             d="m 95.273438,81.841797 v 40.863283 h 3.677734 V 80.855469 Z" /><path
             id="path685-7-1-01"
             style="display:inline;fill:#bebebe;stroke-width:0.907341;fill-opacity:1"
             inkscape:label="roof"
             d="m 161.76758,58.908203 7.10156,1.904297 79.97461,21.427735 v 3.808593 L 161.76758,62.714844 74.691409,86.048828 V 82.240235 L 154.66602,60.8125 Z"
             transform="matrix(-1,0,0,1,323.53516,0)" /></g></g><rect
         style="display:none;fill:#bebebe;stroke-width:1.57189;stroke-miterlimit:3.2;fill-opacity:1"
         id="rect1611-7-5"
         width="44.61401"
         height="45.02425"
         x="42.056278"
         y="-7.6129575" /><g
         inkscape:label="Text small"
         id="g1213-4-6-98"
         transform="matrix(0.69315934,0,0,0.69315934,-47.767427,-59.828522)"
         style="display:inline;fill:#bebebe;fill-opacity:1"><g
           aria-label="4S "
           id="text1211-9-5-9"
           style="font-weight:900;font-size:26.6667px;font-family:Nexa;-inkscape-font-specification:'Nexa, Heavy';fill:#bebebe;fill-opacity:1"
           inkscape:label="4S Solutions"><path
             d="m 160.66092,115.2384 v 3.68001 h -2.05334 v 3.36 h -4.24 v -3.36 h -9.86668 l -0.34667,-3.84001 10.02668,-11.46668 h 4.42667 v 11.62668 z m -6.26668,-6.40001 -5.6,6.45335 h 5.6 z"
             id="path2698-9-3"
             style="fill:#bebebe;fill-opacity:1" /><path
             d="m 170.74091,122.70508 q -2.29334,0 -4.42667,-0.69334 -2.10667,-0.69333 -3.65334,-1.94666 l 2.26667,-3.17334 q 2.48,1.94667 5.78667,1.94667 1.65334,0 2.61334,-0.56 0.98667,-0.56 0.98667,-1.52001 0,-0.90666 -0.90667,-1.41333 -0.90667,-0.50667 -2.88001,-0.72 -3.81333,-0.42667 -5.6,-1.78667 -1.76,-1.36 -1.76,-3.89334 0,-1.70667 0.96,-3.01334 0.96,-1.30666 2.69333,-2.02666 1.73334,-0.72001 4.00001,-0.72001 1.94667,0 3.78667,0.56001 1.86667,0.56 3.28,1.57333 l -2.05333,3.06667 q -2.18667,-1.52 -4.82667,-1.52 -1.62667,0 -2.61334,0.53333 -0.96,0.53334 -0.96,1.44 0,0.88001 0.82667,1.36001 0.85333,0.48 2.82667,0.72 3.78667,0.42666 5.65334,1.89333 1.86667,1.44001 1.86667,3.97334 0,1.76 -0.98667,3.12001 -0.98667,1.33333 -2.77334,2.08 -1.78667,0.72 -4.10667,0.72 z"
             id="path2700-8-9"
             style="fill:#bebebe;fill-opacity:1" /></g></g><g
         id="g1223-4-5-8"
         inkscape:label="Shop small"
         transform="matrix(0.69315934,0,0,0.69315934,-47.767427,-59.828522)"
         style="display:inline;fill:#bebebe;fill-opacity:1"><g
           id="g1221-0-2-30"
           inkscape:label="Building"
           style="display:inline;fill:#bebebe;fill-opacity:1"
           transform="translate(0,22.329092)"><path
             id="path1344-1-4-6"
             style="display:inline;fill:#bebebe;stroke-width:0.550527;fill-opacity:1"
             inkscape:label="right wall"
             d="m 181.38086,80.855962 v 19.521488 h 3.67774 V 81.84229 Z" /><path
             id="path1341-3-7-6"
             style="fill:#bebebe;stroke-width:0.550527;fill-opacity:1"
             inkscape:label="left wall"
             d="m 142.1543,80.855962 -3.67773,0.986328 v 18.53516 h 3.67773 z" /><path
             id="path1376-4-4-8"
             style="display:inline;fill:#bebebe;stroke-width:0.907341;fill-opacity:1"
             inkscape:label="roof"
             d="M 87.076172,34 79.97461,35.904297 54.894531,42.625 v 3.804688 l 32.181641,-8.623047 32.181638,8.623047 V 42.625 L 94.177735,35.904297 Z"
             transform="translate(74.69141,36.579111)" /></g></g><rect
         style="display:none;fill:#bebebe;stroke-width:0.600001;stroke-miterlimit:3.2;fill-opacity:1"
         id="rect653-4-0"
         width="17.029451"
         height="17.186043"
         x="-206.09523"
         y="-40.437836"
         transform="matrix(3.7795276,0,0,3.7795276,778.94261,135.25753)" /></g><g
       id="g369-6-3-0"
       transform="matrix(0.13229161,0,0,0.13229161,-197.5805,-33.815849)"
       style="fill:#bebebe;fill-opacity:1"><g
         inkscape:label="Text"
         id="layer1-1-5-5-4"
         transform="translate(-129.58594,-92.908203)"
         style="display:none;fill:#bebebe;fill-opacity:1"><text
           xml:space="preserve"
           style="font-style:normal;font-variant:normal;font-weight:900;font-stretch:normal;font-size:26.6667px;font-family:Nexa;-inkscape-font-specification:'Nexa, Heavy';font-variant-ligatures:normal;font-variant-caps:normal;font-variant-numeric:normal;font-variant-east-asian:normal;fill:#bebebe;fill-opacity:1"
           x="100.41704"
           y="88.945854"
           id="text113-6-9-2-6"
           inkscape:label="4S Solutions"><tspan
             sodipodi:role="line"
             id="tspan111-4-0-4-6"
             x="100.41704"
             y="88.945854"
             style="font-style:normal;font-variant:normal;font-weight:900;font-stretch:normal;font-size:26.6667px;font-family:Nexa;-inkscape-font-specification:'Nexa, Heavy';font-variant-ligatures:normal;font-variant-caps:normal;font-variant-numeric:normal;font-variant-east-asian:normal;fill:#bebebe;fill-opacity:1"
             dy="11">4S</tspan><tspan
             sodipodi:role="line"
             x="100.41704"
             y="122.27923"
             style="font-style:normal;font-variant:normal;font-weight:900;font-stretch:normal;font-size:26.6667px;font-family:Nexa;-inkscape-font-specification:'Nexa, Heavy';font-variant-ligatures:normal;font-variant-caps:normal;font-variant-numeric:normal;font-variant-east-asian:normal;fill:#bebebe;fill-opacity:1"
             id="tspan165-8-2-4-4">Solutions </tspan></text></g><g
         id="layer2-0-5-8-6"
         inkscape:label="Shop"
         transform="translate(-129.58594,-92.908203)"
         style="display:none;fill:#bebebe;fill-opacity:1"><g
           id="g908-4-4-6-8"
           inkscape:label="Building"
           style="display:inline;fill:#bebebe;fill-opacity:1"><path
             id="rect533-6-7-1-6"
             style="fill:#bebebe;stroke-width:0.550527;fill-opacity:1"
             inkscape:label="right wall"
             d="m 95.273438,81.841797 v 40.863283 h 3.677734 V 80.855469 Z"
             transform="matrix(-1,0,0,1,323.53516,0)" /><path
             id="path902-9-2-3-8"
             style="fill:#bebebe;stroke-width:0.550527;fill-opacity:1"
             inkscape:label="left wall"
             d="m 95.273438,81.841797 v 40.863283 h 3.677734 V 80.855469 Z" /><path
             id="path685-7-1-01-7"
             style="display:inline;fill:#bebebe;stroke-width:0.907341;fill-opacity:1"
             inkscape:label="roof"
             d="m 161.76758,58.908203 7.10156,1.904297 79.97461,21.427735 v 3.808593 L 161.76758,62.714844 74.691409,86.048828 V 82.240235 L 154.66602,60.8125 Z"
             transform="matrix(-1,0,0,1,323.53516,0)" /></g></g><rect
         style="display:none;fill:#bebebe;stroke-width:1.57189;stroke-miterlimit:3.2;fill-opacity:1"
         id="rect1611-7-5-8"
         width="44.61401"
         height="45.02425"
         x="42.056278"
         y="-7.6129575" /><g
         inkscape:label="Text small"
         id="g1213-4-6-98-3"
         transform="matrix(0.69315934,0,0,0.69315934,-47.767427,-59.828522)"
         style="display:inline;fill:#bebebe;fill-opacity:1"><g
           aria-label="4S "
           id="text1211-9-5-9-6"
           style="font-weight:900;font-size:26.6667px;font-family:Nexa;-inkscape-font-specification:'Nexa, Heavy';fill:#bebebe;fill-opacity:1"
           inkscape:label="4S Solutions"><path
             d="m 160.66092,115.2384 v 3.68001 h -2.05334 v 3.36 h -4.24 v -3.36 h -9.86668 l -0.34667,-3.84001 10.02668,-11.46668 h 4.42667 v 11.62668 z m -6.26668,-6.40001 -5.6,6.45335 h 5.6 z"
             id="path2698-9-3-7"
             style="fill:#bebebe;fill-opacity:1" /><path
             d="m 170.74091,122.70508 q -2.29334,0 -4.42667,-0.69334 -2.10667,-0.69333 -3.65334,-1.94666 l 2.26667,-3.17334 q 2.48,1.94667 5.78667,1.94667 1.65334,0 2.61334,-0.56 0.98667,-0.56 0.98667,-1.52001 0,-0.90666 -0.90667,-1.41333 -0.90667,-0.50667 -2.88001,-0.72 -3.81333,-0.42667 -5.6,-1.78667 -1.76,-1.36 -1.76,-3.89334 0,-1.70667 0.96,-3.01334 0.96,-1.30666 2.69333,-2.02666 1.73334,-0.72001 4.00001,-0.72001 1.94667,0 3.78667,0.56001 1.86667,0.56 3.28,1.57333 l -2.05333,3.06667 q -2.18667,-1.52 -4.82667,-1.52 -1.62667,0 -2.61334,0.53333 -0.96,0.53334 -0.96,1.44 0,0.88001 0.82667,1.36001 0.85333,0.48 2.82667,0.72 3.78667,0.42666 5.65334,1.89333 1.86667,1.44001 1.86667,3.97334 0,1.76 -0.98667,3.12001 -0.98667,1.33333 -2.77334,2.08 -1.78667,0.72 -4.10667,0.72 z"
             id="path2700-8-9-3"
             style="fill:#bebebe;fill-opacity:1" /></g></g><g
         id="g1223-4-5-8-8"
         inkscape:label="Shop small"
         transform="matrix(0.69315934,0,0,0.69315934,-47.767427,-59.828522)"
         style="display:inline;fill:#bebebe;fill-opacity:1"><g
           id="g1221-0-2-30-8"
           inkscape:label="Building"
           style="display:inline;fill:#bebebe;fill-opacity:1"
           transform="translate(0,22.329092)"><path
             id="path1344-1-4-6-9"
             style="display:inline;fill:#bebebe;stroke-width:0.550527;fill-opacity:1"
             inkscape:label="right wall"
             d="m 181.38086,80.855962 v 19.521488 h 3.67774 V 81.84229 Z" /><path
             id="path1341-3-7-6-1"
             style="fill:#bebebe;stroke-width:0.550527;fill-opacity:1"
             inkscape:label="left wall"
             d="m 142.1543,80.855962 -3.67773,0.986328 v 18.53516 h 3.67773 z" /><path
             id="path1376-4-4-8-0"
             style="display:inline;fill:#bebebe;stroke-width:0.907341;fill-opacity:1"
             inkscape:label="roof"
             d="M 87.076172,34 79.97461,35.904297 54.894531,42.625 v 3.804688 l 32.181641,-8.623047 32.181638,8.623047 V 42.625 L 94.177735,35.904297 Z"
             transform="translate(74.69141,36.579111)" /></g></g><rect
         style="display:none;fill:#bebebe;stroke-width:0.600001;stroke-miterlimit:3.2;fill-opacity:1"
         id="rect653-4-0-3"
         width="17.029451"
         height="17.186043"
         x="-206.09523"
         y="-40.437836"
         transform="matrix(3.7795276,0,0,3.7795276,778.94261,135.25753)" /></g><g
       id="g369-6-3-05"
       transform="matrix(0.13229161,0,0,0.13229161,-206.09523,-25.222828)"
       style="fill:#bebebe;fill-opacity:1"><g
         inkscape:label="Text"
         id="layer1-1-5-5-3"
         transform="translate(-129.58594,-92.908203)"
         style="display:none;fill:#bebebe;fill-opacity:1"><text
           xml:space="preserve"
           style="font-style:normal;font-variant:normal;font-weight:900;font-stretch:normal;font-size:26.6667px;font-family:Nexa;-inkscape-font-specification:'Nexa, Heavy';font-variant-ligatures:normal;font-variant-caps:normal;font-variant-numeric:normal;font-variant-east-asian:normal;fill:#bebebe;fill-opacity:1"
           x="100.41704"
           y="88.945854"
           id="text113-6-9-2-68"
           inkscape:label="4S Solutions"><tspan
             sodipodi:role="line"
             id="tspan111-4-0-4-9"
             x="100.41704"
             y="88.945854"
             style="font-style:normal;font-variant:normal;font-weight:900;font-stretch:normal;font-size:26.6667px;font-family:Nexa;-inkscape-font-specification:'Nexa, Heavy';font-variant-ligatures:normal;font-variant-caps:normal;font-variant-numeric:normal;font-variant-east-asian:normal;fill:#bebebe;fill-opacity:1"
             dy="11">4S</tspan><tspan
             sodipodi:role="line"
             x="100.41704"
             y="122.27923"
             style="font-style:normal;font-variant:normal;font-weight:900;font-stretch:normal;font-size:26.6667px;font-family:Nexa;-inkscape-font-specification:'Nexa, Heavy';font-variant-ligatures:normal;font-variant-caps:normal;font-variant-numeric:normal;font-variant-east-asian:normal;fill:#bebebe;fill-opacity:1"
             id="tspan165-8-2-4-3">Solutions </tspan></text></g><g
         id="layer2-0-5-8-4"
         inkscape:label="Shop"
         transform="translate(-129.58594,-92.908203)"
         style="display:none;fill:#bebebe;fill-opacity:1"><g
           id="g908-4-4-6-1"
           inkscape:label="Building"
           style="display:inline;fill:#bebebe;fill-opacity:1"><path
             id="rect533-6-7-1-5"
             style="fill:#bebebe;stroke-width:0.550527;fill-opacity:1"
             inkscape:label="right wall"
             d="m 95.273438,81.841797 v 40.863283 h 3.677734 V 80.855469 Z"
             transform="matrix(-1,0,0,1,323.53516,0)" /><path
             id="path902-9-2-3-5"
             style="fill:#bebebe;stroke-width:0.550527;fill-opacity:1"
             inkscape:label="left wall"
             d="m 95.273438,81.841797 v 40.863283 h 3.677734 V 80.855469 Z" /><path
             id="path685-7-1-01-0"
             style="display:inline;fill:#bebebe;stroke-width:0.907341;fill-opacity:1"
             inkscape:label="roof"
             d="m 161.76758,58.908203 7.10156,1.904297 79.97461,21.427735 v 3.808593 L 161.76758,62.714844 74.691409,86.048828 V 82.240235 L 154.66602,60.8125 Z"
             transform="matrix(-1,0,0,1,323.53516,0)" /></g></g><rect
         style="display:none;fill:#bebebe;stroke-width:1.57189;stroke-miterlimit:3.2;fill-opacity:1"
         id="rect1611-7-5-5"
         width="44.61401"
         height="45.02425"
         x="42.056278"
         y="-7.6129575" /><g
         inkscape:label="Text small"
         id="g1213-4-6-98-6"
         transform="matrix(0.69315934,0,0,0.69315934,-47.767427,-59.828522)"
         style="display:inline;fill:#bebebe;fill-opacity:1"><g
           aria-label="4S "
           id="text1211-9-5-9-1"
           style="font-weight:900;font-size:26.6667px;font-family:Nexa;-inkscape-font-specification:'Nexa, Heavy';fill:#bebebe;fill-opacity:1"
           inkscape:label="4S Solutions"><path
             d="m 160.66092,115.2384 v 3.68001 h -2.05334 v 3.36 h -4.24 v -3.36 h -9.86668 l -0.34667,-3.84001 10.02668,-11.46668 h 4.42667 v 11.62668 z m -6.26668,-6.40001 -5.6,6.45335 h 5.6 z"
             id="path2698-9-3-4"
             style="fill:#bebebe;fill-opacity:1" /><path
             d="m 170.74091,122.70508 q -2.29334,0 -4.42667,-0.69334 -2.10667,-0.69333 -3.65334,-1.94666 l 2.26667,-3.17334 q 2.48,1.94667 5.78667,1.94667 1.65334,0 2.61334,-0.56 0.98667,-0.56 0.98667,-1.52001 0,-0.90666 -0.90667,-1.41333 -0.90667,-0.50667 -2.88001,-0.72 -3.81333,-0.42667 -5.6,-1.78667 -1.76,-1.36 -1.76,-3.89334 0,-1.70667 0.96,-3.01334 0.96,-1.30666 2.69333,-2.02666 1.73334,-0.72001 4.00001,-0.72001 1.94667,0 3.78667,0.56001 1.86667,0.56 3.28,1.57333 l -2.05333,3.06667 q -2.18667,-1.52 -4.82667,-1.52 -1.62667,0 -2.61334,0.53333 -0.96,0.53334 -0.96,1.44 0,0.88001 0.82667,1.36001 0.85333,0.48 2.82667,0.72 3.78667,0.42666 5.65334,1.89333 1.86667,1.44001 1.86667,3.97334 0,1.76 -0.98667,3.12001 -0.98667,1.33333 -2.77334,2.08 -1.78667,0.72 -4.10667,0.72 z"
             id="path2700-8-9-7"
             style="fill:#bebebe;fill-opacity:1" /></g></g><g
         id="g1223-4-5-8-3"
         inkscape:label="Shop small"
         transform="matrix(0.69315934,0,0,0.69315934,-47.767427,-59.828522)"
         style="display:inline;fill:#bebebe;fill-opacity:1"><g
           id="g1221-0-2-30-7"
           inkscape:label="Building"
           style="display:inline;fill:#bebebe;fill-opacity:1"
           transform="translate(0,22.329092)"><path
             id="path1344-1-4-6-1"
             style="display:inline;fill:#bebebe;stroke-width:0.550527;fill-opacity:1"
             inkscape:label="right wall"
             d="m 181.38086,80.855962 v 19.521488 h 3.67774 V 81.84229 Z" /><path
             id="path1341-3-7-6-13"
             style="fill:#bebebe;stroke-width:0.550527;fill-opacity:1"
             inkscape:label="left wall"
             d="m 142.1543,80.855962 -3.67773,0.986328 v 18.53516 h 3.67773 z" /><path
             id="path1376-4-4-8-6"
             style="display:inline;fill:#bebebe;stroke-width:0.907341;fill-opacity:1"
             inkscape:label="roof"
             d="M 87.076172,34 79.97461,35.904297 54.894531,42.625 v 3.804688 l 32.181641,-8.623047 32.181638,8.623047 V 42.625 L 94.177735,35.904297 Z"
             transform="translate(74.69141,36.579111)" /></g></g><rect
         style="display:none;fill:#bebebe;stroke-width:0.600001;stroke-miterlimit:3.2;fill-opacity:1"
         id="rect653-4-0-31"
         width="17.029451"
         height="17.186043"
         x="-206.09523"
         y="-40.437836"
         transform="matrix(3.7795276,0,0,3.7795276,778.94261,135.25753)" /></g><g
       id="g369-6-3-2"
       transform="matrix(0.13229161,0,0,0.13229161,-214.60995,-33.815849)"
       style="fill:#bebebe;fill-opacity:1"><g
         inkscape:label="Text"
         id="layer1-1-5-5-7"
         transform="translate(-129.58594,-92.908203)"
         style="display:none;fill:#bebebe;fill-opacity:1"><text
           xml:space="preserve"
           style="font-style:normal;font-variant:normal;font-weight:900;font-stretch:normal;font-size:26.6667px;font-family:Nexa;-inkscape-font-specification:'Nexa, Heavy';font-variant-ligatures:normal;font-variant-caps:normal;font-variant-numeric:normal;font-variant-east-asian:normal;fill:#bebebe;fill-opacity:1"
           x="100.41704"
           y="88.945854"
           id="text113-6-9-2-1"
           inkscape:label="4S Solutions"><tspan
             sodipodi:role="line"
             id="tspan111-4-0-4-1"
             x="100.41704"
             y="88.945854"
             style="font-style:normal;font-variant:normal;font-weight:900;font-stretch:normal;font-size:26.6667px;font-family:Nexa;-inkscape-font-specification:'Nexa, Heavy';font-variant-ligatures:normal;font-variant-caps:normal;font-variant-numeric:normal;font-variant-east-asian:normal;fill:#bebebe;fill-opacity:1"
             dy="11">4S</tspan><tspan
             sodipodi:role="line"
             x="100.41704"
             y="122.27923"
             style="font-style:normal;font-variant:normal;font-weight:900;font-stretch:normal;font-size:26.6667px;font-family:Nexa;-inkscape-font-specification:'Nexa, Heavy';font-variant-ligatures:normal;font-variant-caps:normal;font-variant-numeric:normal;font-variant-east-asian:normal;fill:#bebebe;fill-opacity:1"
             id="tspan165-8-2-4-2">Solutions </tspan></text></g><g
         id="layer2-0-5-8-5"
         inkscape:label="Shop"
         transform="translate(-129.58594,-92.908203)"
         style="display:none;fill:#bebebe;fill-opacity:1"><g
           id="g908-4-4-6-6"
           inkscape:label="Building"
           style="display:inline;fill:#bebebe;fill-opacity:1"><path
             id="rect533-6-7-1-3"
             style="fill:#bebebe;stroke-width:0.550527;fill-opacity:1"
             inkscape:label="right wall"
             d="m 95.273438,81.841797 v 40.863283 h 3.677734 V 80.855469 Z"
             transform="matrix(-1,0,0,1,323.53516,0)" /><path
             id="path902-9-2-3-1"
             style="fill:#bebebe;stroke-width:0.550527;fill-opacity:1"
             inkscape:label="left wall"
             d="m 95.273438,81.841797 v 40.863283 h 3.677734 V 80.855469 Z" /><path
             id="path685-7-1-01-03"
             style="display:inline;fill:#bebebe;stroke-width:0.907341;fill-opacity:1"
             inkscape:label="roof"
             d="m 161.76758,58.908203 7.10156,1.904297 79.97461,21.427735 v 3.808593 L 161.76758,62.714844 74.691409,86.048828 V 82.240235 L 154.66602,60.8125 Z"
             transform="matrix(-1,0,0,1,323.53516,0)" /></g></g><rect
         style="display:none;fill:#bebebe;stroke-width:1.57189;stroke-miterlimit:3.2;fill-opacity:1"
         id="rect1611-7-5-1"
         width="44.61401"
         height="45.02425"
         x="42.056278"
         y="-7.6129575" /><g
         inkscape:label="Text small"
         id="g1213-4-6-98-1"
         transform="matrix(0.69315934,0,0,0.69315934,-47.767427,-59.828522)"
         style="display:inline;fill:#bebebe;fill-opacity:1"><g
           aria-label="4S "
           id="text1211-9-5-9-7"
           style="font-weight:900;font-size:26.6667px;font-family:Nexa;-inkscape-font-specification:'Nexa, Heavy';fill:#bebebe;fill-opacity:1"
           inkscape:label="4S Solutions"><path
             d="m 160.66092,115.2384 v 3.68001 h -2.05334 v 3.36 h -4.24 v -3.36 h -9.86668 l -0.34667,-3.84001 10.02668,-11.46668 h 4.42667 v 11.62668 z m -6.26668,-6.40001 -5.6,6.45335 h 5.6 z"
             id="path2698-9-3-2"
             style="fill:#bebebe;fill-opacity:1" /><path
             d="m 170.74091,122.70508 q -2.29334,0 -4.42667,-0.69334 -2.10667,-0.69333 -3.65334,-1.94666 l 2.26667,-3.17334 q 2.48,1.94667 5.78667,1.94667 1.65334,0 2.61334,-0.56 0.98667,-0.56 0.98667,-1.52001 0,-0.90666 -0.90667,-1.41333 -0.90667,-0.50667 -2.88001,-0.72 -3.81333,-0.42667 -5.6,-1.78667 -1.76,-1.36 -1.76,-3.89334 0,-1.70667 0.96,-3.01334 0.96,-1.30666 2.69333,-2.02666 1.73334,-0.72001 4.00001,-0.72001 1.94667,0 3.78667,0.56001 1.86667,0.56 3.28,1.57333 l -2.05333,3.06667 q -2.18667,-1.52 -4.82667,-1.52 -1.62667,0 -2.61334,0.53333 -0.96,0.53334 -0.96,1.44 0,0.88001 0.82667,1.36001 0.85333,0.48 2.82667,0.72 3.78667,0.42666 5.65334,1.89333 1.86667,1.44001 1.86667,3.97334 0,1.76 -0.98667,3.12001 -0.98667,1.33333 -2.77334,2.08 -1.78667,0.72 -4.10667,0.72 z"
             id="path2700-8-9-2"
             style="fill:#bebebe;fill-opacity:1" /></g></g><g
         id="g1223-4-5-8-1"
         inkscape:label="Shop small"
         transform="matrix(0.69315934,0,0,0.69315934,-47.767427,-59.828522)"
         style="display:inline;fill:#bebebe;fill-opacity:1"><g
           id="g1221-0-2-30-79"
           inkscape:label="Building"
           style="display:inline;fill:#bebebe;fill-opacity:1"
           transform="translate(0,22.329092)"><path
             id="path1344-1-4-6-90"
             style="display:inline;fill:#bebebe;stroke-width:0.550527;fill-opacity:1"
             inkscape:label="right wall"
             d="m 181.38086,80.855962 v 19.521488 h 3.67774 V 81.84229 Z" /><path
             id="path1341-3-7-6-5"
             style="fill:#bebebe;stroke-width:0.550527;fill-opacity:1"
             inkscape:label="left wall"
             d="m 142.1543,80.855962 -3.67773,0.986328 v 18.53516 h 3.67773 z" /><path
             id="path1376-4-4-8-09"
             style="display:inline;fill:#bebebe;stroke-width:0.907341;fill-opacity:1"
             inkscape:label="roof"
             d="M 87.076172,34 79.97461,35.904297 54.894531,42.625 v 3.804688 l 32.181641,-8.623047 32.181638,8.623047 V 42.625 L 94.177735,35.904297 Z"
             transform="translate(74.69141,36.579111)" /></g></g><rect
         style="display:none;fill:#bebebe;stroke-width:0.600001;stroke-miterlimit:3.2;fill-opacity:1"
         id="rect653-4-0-7"
         width="17.029451"
         height="17.186043"
         x="-206.09523"
         y="-40.437836"
         transform="matrix(3.7795276,0,0,3.7795276,778.94261,135.25753)" /></g></g></svg>
